<svg xmlns="http://www.w3.org/2000/svg" width="1560" height="980" viewBox="0 0 1560 980" fill="none">
  <defs>
    <linearGradient id="bg" x1="0" y1="0" x2="1560" y2="980" gradientUnits="userSpaceOnUse">
      <stop offset="0" stop-color="#0A0F11"/>
      <stop offset="1" stop-color="#161D20"/>
    </linearGradient>
    <linearGradient id="panel" x1="0" y1="0" x2="0" y2="1">
      <stop offset="0" stop-color="#1A1614"/>
      <stop offset="1" stop-color="#110E0D"/>
    </linearGradient>
    <filter id="shadow" x="-20%" y="-20%" width="140%" height="140%">
      <feDropShadow dx="0" dy="12" stdDeviation="14" flood-color="#000000" flood-opacity="0.28"/>
    </filter>
  </defs>

  <rect width="1560" height="980" fill="url(#bg)"/>

  <text x="72" y="86" fill="#F2E6CF" font-size="38" font-family="STSong, SimSun, serif" font-weight="700">Survivor 中国风资产定调板</text>
  <text x="72" y="122" fill="#A9B6B0" font-size="18" font-family="Microsoft YaHei, sans-serif">目标：不再讨论整页氛围，直接定义能不能一眼认出的玩家、怪物、武器、掉落物和 HUD 形状语言</text>

  <g filter="url(#shadow)">
    <rect x="64" y="164" width="1432" height="764" rx="34" fill="url(#panel)" stroke="#2B2522" stroke-width="2"/>
  </g>

  <g transform="translate(92 194)">
    <text x="0" y="0" fill="#EFDDBB" font-size="28" font-family="STSong, SimSun, serif" font-weight="700">角色轮廓</text>

    <g transform="translate(0 34)">
      <rect width="244" height="308" rx="26" fill="#171311" stroke="#3A2E27"/>
      <text x="24" y="36" fill="#F2E7D4" font-size="20" font-family="Microsoft YaHei, sans-serif" font-weight="700">玩家：游方术士</text>
      <text x="24" y="64" fill="#B8C1BC" font-size="14" font-family="Microsoft YaHei, sans-serif">规则：竖向、对称、暖符光</text>
      <g transform="translate(58 92)">
        <path d="M62 4L80 20L78 44L91 58L88 88L103 130L82 153L78 177L46 177L42 153L21 130L36 88L33 58L46 44L44 20L62 4Z" fill="#E7D9B8"/>
        <path d="M62 21L77 35L73 57L82 69L78 91L90 128L74 145L71 171L53 171L50 145L34 128L46 91L42 69L51 57L47 35L62 21Z" fill="#24312F"/>
        <path d="M44 66L34 84L43 92L49 74Z" fill="#E7D9B8"/>
        <path d="M80 66L90 84L81 92L75 74Z" fill="#E7D9B8"/>
        <path d="M54 43L70 43L74 82L50 82Z" fill="#B5433D"/>
        <path d="M57 83L67 83L69 111L55 111Z" fill="#D7C18F"/>
        <path d="M60 111L60 136" stroke="#C54640" stroke-width="4" stroke-linecap="round"/>
        <circle cx="60" cy="142" r="4" fill="#C54640"/>
        <path d="M45 111L79 111" stroke="#F1E8D6" stroke-width="4" stroke-linecap="round"/>
        <path d="M53 95L71 95" stroke="#F1E8D6" stroke-width="3" stroke-linecap="round"/>
        <circle cx="62" cy="35" r="8" fill="#F1E6D0"/>
        <path d="M56 24L62 16L68 24" stroke="#262321" stroke-width="4" stroke-linecap="round"/>
        <rect x="17" y="46" width="10" height="20" rx="2" fill="#F4E8D0" stroke="#BE4942" stroke-width="2" transform="rotate(-12 17 46)"/>
        <rect x="96" y="50" width="10" height="20" rx="2" fill="#F4E8D0" stroke="#BE4942" stroke-width="2" transform="rotate(12 96 50)"/>
      </g>
      <text x="24" y="274" fill="#D2B07A" font-size="14" font-family="Microsoft YaHei, sans-serif">识别点：高帽、披肩、胸符、下垂红穗</text>
    </g>

    <g transform="translate(270 34)">
      <rect width="244" height="308" rx="26" fill="#171311" stroke="#3A2E27"/>
      <text x="24" y="36" fill="#F2E7D4" font-size="20" font-family="Microsoft YaHei, sans-serif" font-weight="700">杂兵一：纸人煞</text>
      <text x="24" y="64" fill="#B8C1BC" font-size="14" font-family="Microsoft YaHei, sans-serif">规则：瘦高、平面、符面</text>
      <g transform="translate(75 92)">
        <path d="M45 14L69 14L81 35L76 81L89 120L66 150L48 150L25 120L38 81L33 35L45 14Z" fill="#ECE3D4"/>
        <path d="M45 14L69 14L81 35L76 81L89 120L66 150L48 150L25 120L38 81L33 35L45 14Z" stroke="#2B2724" stroke-width="4"/>
        <path d="M33 35L24 46L30 56" stroke="#2B2724" stroke-width="4" stroke-linecap="round"/>
        <path d="M81 35L90 46L84 56" stroke="#2B2724" stroke-width="4" stroke-linecap="round"/>
        <path d="M48 150L42 166L49 173" stroke="#2B2724" stroke-width="4" stroke-linecap="round"/>
        <path d="M66 150L72 166L65 173" stroke="#2B2724" stroke-width="4" stroke-linecap="round"/>
        <path d="M41 54L73 54" stroke="#C84E4A" stroke-width="4" stroke-linecap="round"/>
        <circle cx="51" cy="38" r="3.5" fill="#202020"/>
        <circle cx="63" cy="38" r="3.5" fill="#202020"/>
        <rect x="49" y="20" width="16" height="8" fill="#DCC9A7"/>
        <path d="M44 104L71 104" stroke="#2B2724" stroke-width="4" stroke-linecap="round"/>
      </g>
      <text x="24" y="274" fill="#D2B07A" font-size="14" font-family="Microsoft YaHei, sans-serif">识别点：白底、纸条下摆、横向红印</text>
    </g>

    <g transform="translate(540 34)">
      <rect width="244" height="308" rx="26" fill="#171311" stroke="#3A2E27"/>
      <text x="24" y="36" fill="#F2E7D4" font-size="20" font-family="Microsoft YaHei, sans-serif" font-weight="700">杂兵二：行尸</text>
      <text x="24" y="64" fill="#B8C1BC" font-size="14" font-family="Microsoft YaHei, sans-serif">规则：厚重、前倾、断肢感</text>
      <g transform="translate(66 96)">
        <path d="M57 10C81 10 96 31 96 58V90L107 118L95 142L76 149L55 142L34 147L17 133L23 110L18 85L26 52C30 26 42 10 57 10Z" fill="#7A6550"/>
        <path d="M57 10C81 10 96 31 96 58V90L107 118L95 142L76 149L55 142L34 147L17 133L23 110L18 85L26 52C30 26 42 10 57 10Z" stroke="#26211E" stroke-width="4"/>
        <path d="M95 73L116 100L110 112L90 94Z" fill="#66513E"/>
        <path d="M23 90L8 126L16 132L31 108Z" fill="#66513E"/>
        <circle cx="49" cy="53" r="4" fill="#EEE1CD"/>
        <circle cx="67" cy="56" r="4" fill="#EEE1CD"/>
        <path d="M39 83L68 83" stroke="#402D26" stroke-width="5" stroke-linecap="round"/>
        <path d="M43 24L57 13L72 21" stroke="#5D4A3A" stroke-width="6" stroke-linecap="round"/>
      </g>
      <text x="24" y="274" fill="#D2B07A" font-size="14" font-family="Microsoft YaHei, sans-serif">识别点：驼背、长拖臂、断肩块面</text>
    </g>

    <g transform="translate(810 34)">
      <rect width="244" height="308" rx="26" fill="#171311" stroke="#3A2E27"/>
      <text x="24" y="36" fill="#F2E7D4" font-size="20" font-family="Microsoft YaHei, sans-serif" font-weight="700">杂兵三：夜鸦妖</text>
      <text x="24" y="64" fill="#B8C1BC" font-size="14" font-family="Microsoft YaHei, sans-serif">规则：尖角、展开、斜三角</text>
      <g transform="translate(52 110)">
        <path d="M22 88L63 25L101 88L77 75L66 128L58 128L47 75L22 88Z" fill="#262D31"/>
        <path d="M22 88L63 25L101 88L77 75L66 128L58 128L47 75L22 88Z" stroke="#111417" stroke-width="4" stroke-linejoin="round"/>
        <circle cx="63" cy="55" r="7" fill="#D7554B"/>
        <path d="M63 44L76 35L71 50Z" fill="#DCC89E"/>
        <path d="M57 69L63 79L69 69" stroke="#DCC89E" stroke-width="4" stroke-linecap="round"/>
        <path d="M47 75L37 102" stroke="#1E2427" stroke-width="4" stroke-linecap="round"/>
        <path d="M77 75L89 102" stroke="#1E2427" stroke-width="4" stroke-linecap="round"/>
      </g>
      <text x="24" y="274" fill="#D2B07A" font-size="14" font-family="Microsoft YaHei, sans-serif">识别点：尖喙、三角翼、尾羽下刺</text>
    </g>

    <g transform="translate(1080 34)">
      <rect width="244" height="308" rx="26" fill="#171311" stroke="#3A2E27"/>
      <text x="24" y="36" fill="#F2E7D4" font-size="20" font-family="Microsoft YaHei, sans-serif" font-weight="700">精英 / Boss 规则</text>
      <text x="24" y="64" fill="#B8C1BC" font-size="14" font-family="Microsoft YaHei, sans-serif">精英保同类轮廓，Boss 必须换成独立异形</text>
      <g transform="translate(30 94)">
        <circle cx="44" cy="60" r="36" fill="none" stroke="#E2B36F" stroke-width="4"/>
        <path d="M33 12C58 12 71 28 71 53V76L79 98L68 115L54 121L39 116L26 120L15 109L19 92L14 71L21 44C25 23 29 12 33 12Z" fill="#7D6350"/>
        <path d="M33 12C58 12 71 28 71 53V76L79 98L68 115L54 121L39 116L26 120L15 109L19 92L14 71L21 44C25 23 29 12 33 12Z" stroke="#27211E" stroke-width="4"/>
        <path d="M25 45L58 45" stroke="#C84B47" stroke-width="5" stroke-linecap="round"/>
        <text x="44" y="146" text-anchor="middle" fill="#D2B07A" font-size="13" font-family="Microsoft YaHei, sans-serif">精英</text>
      </g>
      <g transform="translate(122 86)">
        <path d="M44 18L72 8L99 21L110 48L98 77L108 110L82 132L48 136L22 116L27 88L15 58L24 28L44 18Z" fill="#5D4337"/>
        <path d="M44 18L72 8L99 21L110 48L98 77L108 110L82 132L48 136L22 116L27 88L15 58L24 28L44 18Z" stroke="#201917" stroke-width="4"/>
        <path d="M39 36L61 26L86 37L86 54L62 65L37 54Z" fill="#EEE1CF"/>
        <circle cx="50" cy="46" r="4" fill="#25211F"/>
        <circle cx="74" cy="46" r="4" fill="#25211F"/>
        <path d="M46 78H79" stroke="#C74A43" stroke-width="6" stroke-linecap="round"/>
        <path d="M26 20L16 6M98 20L108 6" stroke="#E2B36F" stroke-width="4" stroke-linecap="round"/>
        <text x="62" y="156" text-anchor="middle" fill="#D2B07A" font-size="13" font-family="Microsoft YaHei, sans-serif">Boss</text>
      </g>
      <text x="24" y="274" fill="#D2B07A" font-size="14" font-family="Microsoft YaHei, sans-serif">精英是强化版，Boss 是“另一个物种”</text>
    </g>
  </g>

  <g transform="translate(92 584)">
    <text x="0" y="0" fill="#EFDDBB" font-size="28" font-family="STSong, SimSun, serif" font-weight="700">武器 / 掉落物</text>

    <g transform="translate(0 34)">
      <rect width="180" height="264" rx="24" fill="#171311" stroke="#3A2E27"/>
      <text x="24" y="34" fill="#F1E7D4" font-size="18" font-family="Microsoft YaHei, sans-serif" font-weight="700">铜钱镖</text>
      <g transform="translate(56 74)">
        <circle cx="34" cy="34" r="30" fill="#C89B4E"/>
        <circle cx="34" cy="34" r="30" stroke="#F0D39B" stroke-width="3"/>
        <rect x="26" y="26" width="16" height="16" fill="#F5EAD6"/>
        <path d="M10 34H-2M70 34H58" stroke="#F0D39B" stroke-width="4" stroke-linecap="round"/>
        <path d="M34 10V-2M34 70V58" stroke="#E1BA74" stroke-width="3" stroke-linecap="round"/>
      </g>
      <text x="24" y="214" fill="#B8C1BC" font-size="14" font-family="Microsoft YaHei, sans-serif">圆孔 + 十字打孔线，像暗器法钱</text>
    </g>

    <g transform="translate(198 34)">
      <rect width="180" height="264" rx="24" fill="#171311" stroke="#3A2E27"/>
      <text x="24" y="34" fill="#F1E7D4" font-size="18" font-family="Microsoft YaHei, sans-serif" font-weight="700">离火符</text>
      <g transform="translate(54 70)">
        <path d="M40 8L58 26L53 58L66 80L54 110L33 129L20 104L25 76L16 54L24 23L40 8Z" fill="#F06F49"/>
        <path d="M40 8L58 26L53 58L66 80L54 110L33 129L20 104L25 76L16 54L24 23L40 8Z" stroke="#FED2AD" stroke-width="3"/>
        <path d="M34 29H45M30 44H49M32 59H46" stroke="#FDE9CF" stroke-width="3" stroke-linecap="round"/>
        <path d="M37 73L43 73M33 87L47 87M35 101L45 101" stroke="#532721" stroke-width="3" stroke-linecap="round"/>
      </g>
      <text x="24" y="214" fill="#B8C1BC" font-size="14" font-family="Microsoft YaHei, sans-serif">符文火箓，靠竖形和笔画识别</text>
    </g>

    <g transform="translate(396 34)">
      <rect width="180" height="264" rx="24" fill="#171311" stroke="#3A2E27"/>
      <text x="24" y="34" fill="#F1E7D4" font-size="18" font-family="Microsoft YaHei, sans-serif" font-weight="700">净瓶法水</text>
      <g transform="translate(44 74)">
        <circle cx="46" cy="46" r="38" fill="#7DAEEE" fill-opacity="0.22"/>
        <circle cx="46" cy="46" r="38" stroke="#BBD5FF" stroke-width="3"/>
        <path d="M46 14C60 14 72 26 72 44C72 64 58 78 46 92C33 78 20 64 20 44C20 26 32 14 46 14Z" fill="#7CA9E8"/>
        <path d="M34 37H58M30 50H62" stroke="#EAF3FF" stroke-width="3" stroke-linecap="round"/>
        <path d="M46 5C52 5 56 9 56 15H36C36 9 40 5 46 5Z" fill="#EAF3FF"/>
        <path d="M18 100C36 90 56 90 74 100" stroke="#BBD5FF" stroke-width="3" stroke-linecap="round"/>
      </g>
      <text x="24" y="214" fill="#B8C1BC" font-size="14" font-family="Microsoft YaHei, sans-serif">上窄下垂，像净瓶坠落的法水</text>
    </g>

    <g transform="translate(594 34)">
      <rect width="180" height="264" rx="24" fill="#171311" stroke="#3A2E27"/>
      <text x="24" y="34" fill="#F1E7D4" font-size="18" font-family="Microsoft YaHei, sans-serif" font-weight="700">护身香火</text>
      <g transform="translate(46 82)">
        <circle cx="44" cy="44" r="42" fill="#DDEBA4" fill-opacity="0.12"/>
        <circle cx="44" cy="44" r="42" stroke="#D9EE9C" stroke-opacity="0.45" stroke-width="3"/>
        <path d="M34 22H54L58 54H30L34 22Z" fill="#EDE4CC"/>
        <path d="M44 12C52 18 55 25 55 30C55 38 50 43 44 46C38 43 33 38 33 30C33 25 36 18 44 12Z" fill="#D8F08D"/>
        <path d="M40 24V8M48 24V6" stroke="#6C5742" stroke-width="3" stroke-linecap="round"/>
        <path d="M37 4C34 0 35 -4 39 -8M51 1C49 -4 50 -8 54 -13" stroke="#DDF5B6" stroke-width="3" stroke-linecap="round"/>
      </g>
      <text x="24" y="214" fill="#B8C1BC" font-size="14" font-family="Microsoft YaHei, sans-serif">双香 + 烟线，比大蒜更有身份</text>
    </g>

    <g transform="translate(826 34)">
      <rect width="160" height="264" rx="24" fill="#171311" stroke="#3A2E27"/>
      <text x="22" y="34" fill="#F1E7D4" font-size="18" font-family="Microsoft YaHei, sans-serif" font-weight="700">灵玉</text>
      <path d="M80 72L103 93L97 116L80 128L63 116L57 93L80 72Z" fill="#48A7EC"/>
      <path d="M80 140L105 164L98 189L80 202L62 189L55 164L80 140Z" fill="#78D16B"/>
      <path d="M80 206L107 232L99 259L80 273L61 259L53 232L80 206Z" fill="#D94C4D" transform="translate(0 -18)"/>
      <path d="M80 80L88 93L80 105L72 93L80 80Z" fill="#D8F0FF"/>
      <path d="M80 148L88 161L80 173L72 161L80 148Z" fill="#E7F8D7"/>
      <path d="M80 216L88 229L80 241L72 229L80 216Z" fill="#F8D5D5" transform="translate(0 -18)"/>
      <text x="22" y="214" fill="#B8C1BC" font-size="14" font-family="Microsoft YaHei, sans-serif">切面更明显，缩小后也像玉</text>
    </g>

    <g transform="translate(1004 34)">
      <rect width="160" height="264" rx="24" fill="#171311" stroke="#3A2E27"/>
      <text x="22" y="34" fill="#F1E7D4" font-size="18" font-family="Microsoft YaHei, sans-serif" font-weight="700">驱邪法匣</text>
      <g transform="translate(44 96)">
        <rect x="0" y="0" width="72" height="50" rx="6" fill="#8F602D"/>
        <rect x="0" y="0" width="72" height="50" rx="6" stroke="#F0CD84" stroke-width="3"/>
        <rect x="31" y="0" width="10" height="50" fill="#F0CD84"/>
        <circle cx="36" cy="25" r="5" fill="#6A411F"/>
        <rect x="18" y="-12" width="36" height="18" rx="3" fill="#F1E5CF" stroke="#C74B44" stroke-width="2"/>
        <path d="M24 -3H48" stroke="#C74B44" stroke-width="3" stroke-linecap="round"/>
      </g>
      <text x="22" y="214" fill="#B8C1BC" font-size="14" font-family="Microsoft YaHei, sans-serif">加封条后，立刻像法匣而不是箱子</text>
    </g>

    <g transform="translate(1182 34)">
      <rect width="160" height="264" rx="24" fill="#171311" stroke="#3A2E27"/>
      <text x="22" y="34" fill="#F1E7D4" font-size="18" font-family="Microsoft YaHei, sans-serif" font-weight="700">魂火</text>
      <g transform="translate(44 88)">
        <path d="M38 12C54 24 60 36 60 50C60 71 48 88 38 102C27 88 16 71 16 50C16 36 23 24 38 12Z" fill="#8ED36C"/>
        <path d="M38 28C47 35 50 42 50 50C50 62 43 71 38 79C32 71 25 62 25 50C25 42 29 35 38 28Z" fill="#DFF3BE"/>
        <path d="M38 104V118" stroke="#7AB85C" stroke-width="4" stroke-linecap="round"/>
        <path d="M28 118H48" stroke="#7AB85C" stroke-width="4" stroke-linecap="round"/>
      </g>
      <text x="22" y="214" fill="#B8C1BC" font-size="14" font-family="Microsoft YaHei, sans-serif">带底座后更像“可拾取魂火”</text>
    </g>
  </g>

  <g transform="translate(92 898)">
    <text x="0" y="0" fill="#EED8A7" font-size="16" font-family="Microsoft YaHei, sans-serif">这张板子只做一件事：定义“真正要画进游戏的对象长什么样”。如果这版方向对，下一步我就直接把这些轮廓语言落到 `SurvivorRenderItem` 里。</text>
  </g>

  <g transform="translate(1154 188)">
    <rect width="312" height="294" rx="26" fill="#161312" stroke="#332A26"/>
    <text x="24" y="38" fill="#F1E7D3" font-size="24" font-family="STSong, SimSun, serif" font-weight="700">HUD 规则</text>
    <text x="24" y="78" fill="#B8C1BC" font-size="16" font-family="Microsoft YaHei, sans-serif">1. 深棕底，不用透明黑磨砂</text>
    <text x="24" y="110" fill="#B8C1BC" font-size="16" font-family="Microsoft YaHei, sans-serif">2. 金属边框统一为旧铜金</text>
    <text x="24" y="142" fill="#B8C1BC" font-size="16" font-family="Microsoft YaHei, sans-serif">3. 数值字号稳，标题可加书卷感</text>
    <text x="24" y="174" fill="#B8C1BC" font-size="16" font-family="Microsoft YaHei, sans-serif">4. 武器图标比文字更重要</text>
    <text x="24" y="206" fill="#B8C1BC" font-size="16" font-family="Microsoft YaHei, sans-serif">5. 升级卡像法帖 / 法箓，不像现代卡片</text>
    <g transform="translate(24 228)">
      <rect x="0" y="0" width="116" height="40" rx="10" fill="#241A17" stroke="#BE9557" stroke-width="2"/>
      <text x="58" y="25" text-anchor="middle" fill="#F4E9D4" font-size="18" font-family="STSong, SimSun, serif" font-weight="700">法箓升级</text>
    </g>
  </g>

  <g transform="translate(1154 506)">
    <rect width="312" height="256" rx="26" fill="#161312" stroke="#332A26"/>
    <text x="24" y="38" fill="#F1E7D3" font-size="24" font-family="STSong, SimSun, serif" font-weight="700">下一步该怎么改</text>
    <text x="24" y="78" fill="#B8C1BC" font-size="16" font-family="Microsoft YaHei, sans-serif">1. 先改渲染对象，不先改文案</text>
    <text x="24" y="110" fill="#B8C1BC" font-size="16" font-family="Microsoft YaHei, sans-serif">2. 先落玩家、三杂兵、三武器、宝石、法匣</text>
    <text x="24" y="142" fill="#B8C1BC" font-size="16" font-family="Microsoft YaHei, sans-serif">3. 再统一 HUD 和升级弹窗</text>
    <text x="24" y="174" fill="#B8C1BC" font-size="16" font-family="Microsoft YaHei, sans-serif">4. 最后才改进化名、被动名、状态文案</text>
    <text x="24" y="214" fill="#D4B17A" font-size="15" font-family="Microsoft YaHei, sans-serif">重点：先让战斗一眼能看懂，再谈氛围。</text>
  </g>
</svg>
