<svg width="430" height="980" viewBox="0 0 430 980" fill="none" xmlns="http://www.w3.org/2000/svg">
  <defs>
    <linearGradient id="bg" x1="24" y1="0" x2="406" y2="980" gradientUnits="userSpaceOnUse">
      <stop stop-color="#F6F0E4"/>
      <stop offset="1" stop-color="#E8DED0"/>
    </linearGradient>
    <linearGradient id="hero" x1="32" y1="108" x2="398" y2="290" gradientUnits="userSpaceOnUse">
      <stop stop-color="#E8D0A0"/>
      <stop offset="1" stop-color="#C79D5B"/>
    </linearGradient>
    <linearGradient id="onlineTab" x1="0" y1="0" x2="165" y2="0" gradientUnits="userSpaceOnUse">
      <stop stop-color="#203E36"/>
      <stop offset="1" stop-color="#2F5A4F"/>
    </linearGradient>
    <filter id="shadow" x="-20" y="-20" width="470" height="1040" filterUnits="userSpaceOnUse" color-interpolation-filters="sRGB">
      <feDropShadow dx="0" dy="8" stdDeviation="10" flood-color="#7B6B55" flood-opacity="0.12"/>
    </filter>
  </defs>

  <rect width="430" height="980" rx="0" fill="url(#bg)"/>

  <g filter="url(#shadow)">
    <rect x="24" y="24" width="382" height="932" rx="34" fill="#F9F6F0"/>
  </g>

  <text x="44" y="68" fill="#2E261C" font-size="28" font-family="Segoe UI, PingFang SC, Microsoft YaHei, sans-serif" font-weight="700">桌域</text>
  <text x="44" y="94" fill="#7A6B58" font-size="13" font-family="Segoe UI, PingFang SC, Microsoft YaHei, sans-serif">五子棋 / 联机大厅 / ECS 在线联机草图</text>

  <rect x="32" y="118" width="366" height="156" rx="30" fill="url(#hero)"/>
  <text x="56" y="156" fill="#6A5331" font-size="12" font-family="Segoe UI, PingFang SC, Microsoft YaHei, sans-serif" letter-spacing="1.6">ONLINE LOBBY</text>
  <text x="56" y="196" fill="#2D2419" font-size="30" font-family="Segoe UI, PingFang SC, Microsoft YaHei, sans-serif" font-weight="700">在线游戏</text>
  <text x="56" y="224" fill="#5D4B34" font-size="14" font-family="Segoe UI, PingFang SC, Microsoft YaHei, sans-serif">同一页切换“局域网 / 在线”，在线模式连接 ECS 服务端，展示房间列表与服务状态。</text>
  <rect x="56" y="238" width="74" height="24" rx="12" fill="#F6EBD6"/>
  <text x="76" y="254" fill="#65512F" font-size="12" font-family="Segoe UI, PingFang SC, Microsoft YaHei, sans-serif">方案一</text>
  <rect x="310" y="142" width="58" height="58" rx="18" fill="#E8C37F"/>
  <rect x="324" y="156" width="30" height="30" rx="6" fill="#7A6035"/>
  <circle cx="339" cy="171" r="5" fill="#F7F2E8"/>

  <rect x="32" y="292" width="366" height="54" rx="27" fill="#ECE4D8"/>
  <rect x="217" y="300" width="173" height="38" rx="19" fill="url(#onlineTab)"/>
  <text x="100" y="324" text-anchor="middle" fill="#8A7B68" font-size="15" font-family="Segoe UI, PingFang SC, Microsoft YaHei, sans-serif" font-weight="600">局域网</text>
  <text x="304" y="324" text-anchor="middle" fill="#F4EFE7" font-size="15" font-family="Segoe UI, PingFang SC, Microsoft YaHei, sans-serif" font-weight="700">在线</text>

  <rect x="32" y="366" width="366" height="98" rx="24" fill="#F8F3EA" stroke="#DED2C1"/>
  <circle cx="62" cy="411" r="6" fill="#2FA36B"/>
  <text x="80" y="400" fill="#2C241A" font-size="18" font-family="Segoe UI, PingFang SC, Microsoft YaHei, sans-serif" font-weight="700">ECS 演示服务器</text>
  <text x="80" y="424" fill="#7A6B58" font-size="13" font-family="Segoe UI, PingFang SC, Microsoft YaHei, sans-serif">47.105.54.227 : 44567</text>
  <text x="80" y="444" fill="#7A6B58" font-size="13" font-family="Segoe UI, PingFang SC, Microsoft YaHei, sans-serif">状态：在线，可进入大厅</text>
  <rect x="308" y="388" width="72" height="32" rx="16" fill="#1F3B34"/>
  <text x="344" y="409" text-anchor="middle" fill="#F6F1E8" font-size="13" font-family="Segoe UI, PingFang SC, Microsoft YaHei, sans-serif" font-weight="700">连接</text>

  <rect x="32" y="482" width="366" height="254" rx="24" fill="#F8F3EA" stroke="#DED2C1"/>
  <text x="52" y="516" fill="#2C241A" font-size="20" font-family="Segoe UI, PingFang SC, Microsoft YaHei, sans-serif" font-weight="700">在线房间</text>
  <text x="52" y="538" fill="#7A6B58" font-size="13" font-family="Segoe UI, PingFang SC, Microsoft YaHei, sans-serif">从 ECS 拉取房间列表，点击即可加入</text>
  <rect x="320" y="500" width="58" height="28" rx="14" fill="#EFE5D7"/>
  <text x="349" y="518" text-anchor="middle" fill="#6E5C43" font-size="12" font-family="Segoe UI, PingFang SC, Microsoft YaHei, sans-serif">刷新</text>

  <rect x="50" y="556" width="330" height="56" rx="18" fill="#EEE5D8" stroke="#DED2C1"/>
  <text x="68" y="579" fill="#2C241A" font-size="15" font-family="Segoe UI, PingFang SC, Microsoft YaHei, sans-serif" font-weight="700">lhx 的房间</text>
  <text x="68" y="597" fill="#7A6B58" font-size="12" font-family="Segoe UI, PingFang SC, Microsoft YaHei, sans-serif">等待中 · 1 / 2</text>
  <rect x="302" y="569" width="60" height="28" rx="14" fill="#1F3B34"/>
  <text x="332" y="587" text-anchor="middle" fill="#F6F1E8" font-size="12" font-family="Segoe UI, PingFang SC, Microsoft YaHei, sans-serif">加入</text>

  <rect x="50" y="622" width="330" height="56" rx="18" fill="#EEE5D8" stroke="#DED2C1"/>
  <text x="68" y="645" fill="#2C241A" font-size="15" font-family="Segoe UI, PingFang SC, Microsoft YaHei, sans-serif" font-weight="700">演示房间 B</text>
  <text x="68" y="663" fill="#7A6B58" font-size="12" font-family="Segoe UI, PingFang SC, Microsoft YaHei, sans-serif">对局中 · 2 / 2</text>
  <rect x="290" y="635" width="72" height="28" rx="14" fill="#D8CBBB"/>
  <text x="326" y="653" text-anchor="middle" fill="#8A7B68" font-size="12" font-family="Segoe UI, PingFang SC, Microsoft YaHei, sans-serif">不可加入</text>

  <rect x="50" y="688" width="330" height="30" rx="15" fill="#F3ECE0"/>
  <text x="215" y="707" text-anchor="middle" fill="#90806C" font-size="12" font-family="Segoe UI, PingFang SC, Microsoft YaHei, sans-serif">空态时这里显示“暂无在线房间，可先创建一个”</text>

  <rect x="32" y="754" width="366" height="118" rx="24" fill="#F8F3EA" stroke="#DED2C1"/>
  <text x="52" y="788" fill="#2C241A" font-size="20" font-family="Segoe UI, PingFang SC, Microsoft YaHei, sans-serif" font-weight="700">在线入口</text>
  <text x="52" y="810" fill="#7A6B58" font-size="13" font-family="Segoe UI, PingFang SC, Microsoft YaHei, sans-serif">如果服务端暂时不支持完整房间大厅，这里可以先保留一个“快速进入”大按钮。</text>
  <rect x="52" y="826" width="152" height="30" rx="15" fill="#EFE5D7"/>
  <text x="128" y="845" text-anchor="middle" fill="#6E5C43" font-size="12" font-family="Segoe UI, PingFang SC, Microsoft YaHei, sans-serif">服务器地址 / 端口</text>
  <rect x="254" y="820" width="126" height="38" rx="19" fill="#203E36"/>
  <text x="317" y="844" text-anchor="middle" fill="#F6F1E8" font-size="13" font-family="Segoe UI, PingFang SC, Microsoft YaHei, sans-serif" font-weight="700">快速进入大厅</text>

  <rect x="32" y="892" width="366" height="44" rx="22" fill="#FCFCF9"/>
  <text x="94" y="919" text-anchor="middle" fill="#8A7B68" font-size="14" font-family="Segoe UI, PingFang SC, Microsoft YaHei, sans-serif">首页</text>
  <text x="214" y="919" text-anchor="middle" fill="#8A7B68" font-size="14" font-family="Segoe UI, PingFang SC, Microsoft YaHei, sans-serif">联机</text>
  <text x="334" y="919" text-anchor="middle" fill="#1F3B34" font-size="15" font-family="Segoe UI, PingFang SC, Microsoft YaHei, sans-serif" font-weight="700">设置</text>
  <rect x="322" y="924" width="24" height="3" rx="1.5" fill="#1F3B34"/>
</svg>
