<svg width="420" height="860" viewBox="0 0 420 860" fill="none" xmlns="http://www.w3.org/2000/svg">
  <rect width="420" height="860" rx="34" fill="#0F1815"/>

  <rect x="20" y="20" width="380" height="820" rx="28" fill="#15211D"/>

  <rect x="20" y="20" width="380" height="118" rx="28" fill="url(#topFade)"/>

  <rect x="36" y="42" width="348" height="10" rx="5" fill="#111A17"/>
  <rect x="39" y="45" width="182" height="4" rx="2" fill="#C79C55"/>
  <rect x="334" y="41" width="46" height="12" rx="6" fill="#18221E"/>
  <text x="357" y="50" text-anchor="middle" fill="#F2E8D6" font-size="8" font-family="Arial, sans-serif">LV 12</text>

  <text x="42" y="88" fill="#F4EBDC" font-size="14" font-weight="700" font-family="Arial, sans-serif">12</text>
  <text x="68" y="88" fill="#8CA095" font-size="10" font-family="Arial, sans-serif">击杀 186</text>
  <text x="42" y="104" fill="#708278" font-size="9" font-family="Arial, sans-serif">墓园前庭 · local</text>

  <g transform="translate(42 116)">
    <rect width="18" height="18" rx="5" fill="#101715"/>
    <rect x="22" width="18" height="18" rx="5" fill="#101715"/>
    <rect x="44" width="18" height="18" rx="5" fill="#101715"/>
    <rect x="66" width="18" height="18" rx="5" fill="#101715"/>
    <rect x="88" width="18" height="18" rx="5" fill="#101715"/>
    <rect x="110" width="18" height="18" rx="5" fill="#101715"/>
    <text x="5" y="12" fill="#EEDFC0" font-size="8" font-family="Arial, sans-serif">蒜</text>
    <text x="27" y="12" fill="#EEDFC0" font-size="8" font-family="Arial, sans-serif">刀</text>
    <text x="49" y="12" fill="#EEDFC0" font-size="8" font-family="Arial, sans-serif">火</text>
    <text x="71" y="12" fill="#6E7D77" font-size="8" font-family="Arial, sans-serif">空</text>
    <text x="93" y="12" fill="#6E7D77" font-size="8" font-family="Arial, sans-serif">空</text>
    <text x="115" y="12" fill="#6E7D77" font-size="8" font-family="Arial, sans-serif">空</text>
  </g>
  <g transform="translate(42 138)">
    <rect width="12" height="12" rx="4" fill="#111816"/>
    <rect x="16" width="12" height="12" rx="4" fill="#111816"/>
    <rect x="32" width="12" height="12" rx="4" fill="#111816"/>
    <rect x="48" width="12" height="12" rx="4" fill="#111816"/>
    <rect x="64" width="12" height="12" rx="4" fill="#111816"/>
    <rect x="80" width="12" height="12" rx="4" fill="#111816"/>
  </g>

  <text x="210" y="86" text-anchor="middle" fill="#F4EBDC" font-size="24" font-weight="800" font-family="Arial, sans-serif">04:32</text>
  <text x="210" y="104" text-anchor="middle" fill="#85988E" font-size="10" font-family="Arial, sans-serif">build 成型期</text>
  <text x="210" y="119" text-anchor="middle" fill="#708278" font-size="9" font-family="Arial, sans-serif">击杀 186 · local</text>

  <rect x="300" y="76" width="76" height="76" rx="38" fill="#192521" fill-opacity="0.72"/>
  <circle cx="338" cy="114" r="31" fill="#101715"/>
  <circle cx="338" cy="114" r="31" stroke="#4F654C" stroke-width="1"/>
  <circle cx="338" cy="114" r="20" stroke="#34443E" stroke-width="1"/>
  <line x1="338" y1="85" x2="338" y2="143" stroke="#2F3D38" stroke-width="1"/>
  <line x1="309" y1="114" x2="367" y2="114" stroke="#2F3D38" stroke-width="1"/>
  <circle cx="338" cy="114" r="3.5" fill="#EEDFC0"/>
  <circle cx="323" cy="101" r="2.5" fill="#C65B52"/>
  <circle cx="352" cy="125" r="2.5" fill="#C65B52"/>
  <circle cx="346" cy="92" r="2" fill="#6BB7D8"/>

  <rect x="36" y="166" width="348" height="644" rx="24" fill="#D8D1C3"/>
  <rect x="36" y="166" width="348" height="644" rx="24" fill="url(#arenaVignette)"/>

  <g opacity="0.42" stroke="#B8AFA0" stroke-width="1">
    <line x1="72" y1="166" x2="72" y2="810"/>
    <line x1="124" y1="166" x2="124" y2="810"/>
    <line x1="176" y1="166" x2="176" y2="810"/>
    <line x1="228" y1="166" x2="228" y2="810"/>
    <line x1="280" y1="166" x2="280" y2="810"/>
    <line x1="332" y1="166" x2="332" y2="810"/>
    <line x1="36" y1="234" x2="384" y2="234"/>
    <line x1="36" y1="306" x2="384" y2="306"/>
    <line x1="36" y1="378" x2="384" y2="378"/>
    <line x1="36" y1="450" x2="384" y2="450"/>
    <line x1="36" y1="522" x2="384" y2="522"/>
    <line x1="36" y1="594" x2="384" y2="594"/>
    <line x1="36" y1="666" x2="384" y2="666"/>
    <line x1="36" y1="738" x2="384" y2="738"/>
  </g>

  <circle cx="210" cy="496" r="24" fill="#4E827B"/>
  <circle cx="205" cy="490" r="10" fill="#E7F1EC" opacity="0.9"/>
  <path d="M220 496H232" stroke="#D96D58" stroke-width="3" stroke-linecap="round"/>
  <rect x="188" y="528" width="44" height="5" rx="2.5" fill="#26342F"/>
  <rect x="188" y="528" width="31" height="5" rx="2.5" fill="#D45F56"/>

  <circle cx="160" cy="472" r="18" fill="#7E9A63" opacity="0.14"/>
  <circle cx="160" cy="472" r="28" stroke="#8FAA6D" stroke-opacity="0.26"/>
  <circle cx="160" cy="472" r="20" stroke="#A8C288" stroke-opacity="0.18"/>

  <circle cx="262" cy="454" r="20" fill="#537AA8" opacity="0.16"/>
  <circle cx="262" cy="454" r="20" stroke="#7AA2D0" stroke-opacity="0.30"/>
  <circle cx="262" cy="454" r="12" stroke="#B8D2EC" stroke-opacity="0.18"/>

  <circle cx="128" cy="420" r="11" fill="#9F7D65"/>
  <circle cx="286" cy="396" r="10" fill="#5C7486"/>
  <rect x="314" y="560" width="22" height="22" rx="7" fill="#6E5C52"/>
  <polygon points="98,612 112,598 126,612 112,626" fill="#F1D047"/>
  <polygon points="302,322 313,311 324,322 313,333" fill="#4BA6E7"/>
  <polygon points="154,706 167,693 180,706 167,719" fill="#72C96A"/>

  <circle cx="84" cy="742" r="42" fill="#18231F" opacity="0.58"/>
  <circle cx="84" cy="742" r="42" stroke="#31413B" stroke-width="1"/>
  <circle cx="84" cy="742" r="22" fill="#E5D2A1"/>

  <text x="36" y="828" fill="#6E7C76" font-size="10" font-family="Arial, sans-serif">方向：去卡片边框，改为悬浮信息组，时间与描述纯居中</text>

  <defs>
    <linearGradient id="topFade" x1="210" y1="20" x2="210" y2="138" gradientUnits="userSpaceOnUse">
      <stop stop-color="#0E1513" stop-opacity="0.84"/>
      <stop offset="1" stop-color="#0E1513" stop-opacity="0"/>
    </linearGradient>
    <radialGradient id="arenaVignette" cx="0" cy="0" r="1" gradientUnits="userSpaceOnUse" gradientTransform="translate(210 494) rotate(90) scale(362 250)">
      <stop offset="0.68" stop-color="#000000" stop-opacity="0"/>
      <stop offset="1" stop-color="#3C352F" stop-opacity="0.24"/>
    </radialGradient>
  </defs>
</svg>
